<?xml version="1.0" standalone="no"?>
<!DOCTYPE svg PUBLIC "-//W3C//DTD SVG 20010904//EN"
 "http://www.w3.org/TR/2001/REC-SVG-20010904/DTD/svg10.dtd">
<svg version="1.0" xmlns="http://www.w3.org/2000/svg"
 width="260.000000pt" height="260.000000pt" viewBox="0 0 260.000000 260.000000"
 preserveAspectRatio="xMidYMid meet">
<metadata>
Created by potrace 1.11, written by Peter Selinger 2001-2013
</metadata>
<g transform="translate(0.000000,260.000000) scale(0.100000,-0.100000)"
fill="#000000" stroke="none">
<path d="M1887 2463 c-2 -1 -131 -13 -217 -19 -30 -2 -75 -6 -100 -8 -25 -2
-79 -7 -120 -10 -41 -4 -95 -8 -120 -11 -25 -3 -79 -8 -120 -11 -41 -3 -93 -7
-115 -9 -22 -2 -67 -6 -100 -9 -81 -6 -244 -22 -267 -25 -7 -1 -77 -101 -247
-351 -58 -85 -108 -157 -111 -160 -4 -3 -30 -40 -59 -84 -57 -84 -58 -93 -12
-143 20 -23 61 -77 95 -127 14 -21 26 -35 26 -31 0 4 17 -17 37 -46 31 -46
325 -443 384 -519 11 -14 144 -191 297 -394 152 -203 282 -371 287 -373 10 -3
20 13 95 152 55 101 73 135 120 215 20 36 54 97 75 135 39 72 272 492 308 555
11 19 33 60 50 90 16 30 51 93 77 140 26 47 61 110 77 140 17 30 40 73 53 95
13 22 36 64 51 94 l29 55 -42 75 c-23 42 -57 105 -76 141 -19 36 -53 101 -77
145 -23 44 -66 125 -95 180 -29 55 -57 106 -63 113 -6 8 -29 12 -64 10 -30 -2
-55 -4 -56 -5z m68 -75 c-3 -17 -9 -36 -13 -42 -4 -6 -7 -23 -8 -38 -2 -45 -3
-48 -15 -48 -8 0 -8 5 1 15 10 12 10 15 -1 16 -9 0 -10 2 -2 5 6 3 9 16 7 30
-3 14 0 24 7 24 6 0 9 7 5 15 -3 8 0 15 7 16 9 0 9 2 0 6 -10 3 -10 7 0 18 17
20 18 19 12 -17z m-1205 -146 c0 -8 -1 -13 -3 -11 -1 2 -9 12 -16 22 -12 15
-12 17 3 11 9 -3 16 -13 16 -22z m835 6 c4 0 12 6 17 14 8 10 9 10 6 -2 -3 -8
-16 -15 -30 -15 -19 -1 -25 2 -21 12 4 11 8 11 13 3 4 -6 11 -12 15 -12z m330
-30 c-3 -18 -8 -37 -9 -43 -2 -5 -6 -23 -10 -40 -4 -16 -13 -55 -21 -85 -8
-30 -16 -66 -19 -80 -2 -14 -9 -37 -15 -52 -6 -16 -8 -28 -5 -28 17 0 -18 -36
-37 -37 l-22 -2 21 15 c24 17 22 52 -5 73 -16 12 -16 12 4 6 17 -5 22 -3 17 8
-3 8 2 17 13 21 15 6 15 8 -6 19 -14 7 -25 20 -27 30 -1 11 1 16 4 12 4 -4 7
-12 7 -18 0 -7 8 -13 18 -15 9 -2 17 2 17 8 0 6 -6 8 -12 5 -7 -4 -4 1 6 9 19
16 26 32 29 69 1 9 5 17 10 17 5 0 7 6 5 12 -3 7 1 18 8 25 6 7 10 26 9 43 -1
16 1 30 6 30 5 0 6 7 3 15 -4 8 -1 15 6 15 9 0 10 -10 5 -32z m-1150 -28 c-3
-5 -12 -10 -18 -10 -7 0 -6 4 3 10 19 12 23 12 15 0z m15 -26 c0 -8 -19 -13
-24 -6 -3 5 1 9 9 9 8 0 15 -2 15 -3z m920 -23 c8 -15 8 -21 1 -17 -15 10 -14
-7 2 -24 9 -11 8 -11 -7 0 -18 14 -19 13 -13 -5 7 -20 7 -20 -8 0 -17 21 -14
42 4 38 6 -2 11 2 11 7 0 6 -6 10 -14 10 -8 0 -18 -4 -21 -10 -8 -14 -25 -13
-25 2 0 6 3 8 6 5 4 -3 16 0 27 8 12 8 22 14 23 12 1 -1 7 -13 14 -26z m44
-10 c-3 -3 -15 6 -27 18 l-22 24 27 -19 c14 -10 24 -21 22 -23z m-950 -17 c2
-16 9 -42 16 -59 6 -16 11 -31 11 -32 -1 -4 10 -35 20 -61 5 -13 7 -27 4 -32
-3 -5 -1 -11 5 -15 6 -4 8 -11 5 -16 -4 -5 -1 -9 5 -9 6 0 9 -4 6 -9 -4 -5 0
-12 6 -14 10 -4 10 -6 0 -6 -7 -1 -15 6 -19 15 -5 13 -7 13 -14 2 -6 -9 -9 -9
-9 -1 0 6 5 15 11 18 7 5 3 15 -11 30 -12 13 -17 26 -12 29 6 3 0 29 -13 63
-25 61 -37 118 -27 127 8 9 12 2 16 -30z m1016 16 c6 -11 8 -20 6 -20 -3 0
-10 9 -16 20 -6 11 -8 20 -6 20 3 0 10 -9 16 -20z m-264 -15 c-3 -9 -11 -13
-16 -10 -6 4 -17 1 -25 -5 -11 -9 -15 -9 -15 -1 0 6 5 11 11 11 5 0 7 5 3 12
-4 6 -3 8 2 5 6 -3 16 -2 24 3 18 11 24 5 16 -15z m-901 -3 c-3 -3 -11 0 -18
7 -9 10 -8 11 6 5 10 -3 15 -9 12 -12z m981 6 c5 -8 2 -9 -10 -5 -14 6 -17 3
-12 -10 6 -14 4 -15 -5 -6 -12 12 -5 33 11 33 5 0 12 -5 16 -12z m28 -16 c2
-4 -5 -9 -17 -9 -17 -2 -19 0 -7 7 18 12 18 12 24 2z m-1027 -24 c-3 -8 -6 -5
-6 6 -1 11 2 17 5 13 3 -3 4 -12 1 -19z m858 2 c3 -5 1 -10 -4 -10 -6 0 -11 5
-11 10 0 6 2 10 4 10 3 0 8 -4 11 -10z m196 -14 c5 3 9 0 9 -6 0 -15 -23 -7
-26 8 -1 7 0 8 3 2 2 -5 9 -8 14 -4z m44 -4 c-3 -3 -11 0 -18 7 -9 10 -8 11 6
5 10 -3 15 -9 12 -12z m-99 -4 c4 -6 3 -8 -4 -4 -5 3 -12 0 -15 -6 -2 -7 -8
-9 -13 -5 -5 4 -2 12 6 17 19 12 17 12 26 -2z m-286 -12 c0 -3 -4 -8 -10 -11
-5 -3 -10 -1 -10 4 0 6 5 11 10 11 6 0 10 -2 10 -4z m234 -7 c-2 -4 2 -10 8
-13 7 -3 3 -3 -9 0 -13 3 -23 1 -23 -5 0 -5 -13 -16 -29 -24 -25 -12 -29 -12
-24 -1 3 8 12 14 20 14 8 0 11 5 8 10 -3 6 1 10 9 10 9 0 16 4 16 8 0 5 7 9
15 9 8 0 12 -4 9 -8z m86 7 c0 -3 -4 -8 -10 -11 -5 -3 -10 -1 -10 4 0 6 5 11
10 11 6 0 10 -2 10 -4z m64 -12 c9 -24 7 -31 -5 -12 -5 10 -17 15 -27 12 -14
-5 -15 -4 -2 5 20 15 27 14 34 -5z m51 -14 c3 -6 -1 -10 -9 -10 -9 0 -16 -4
-16 -10 0 -5 -5 -10 -12 -10 -8 0 -6 6 4 17 16 15 16 17 0 30 -15 13 -15 13 5
3 12 -5 25 -15 28 -20z m-677 12 c15 11 15 11 4 -4 -13 -17 -36 -18 -49 -3 -4
4 -2 5 5 1 7 -4 12 -2 13 6 0 10 2 11 6 0 4 -10 8 -10 21 0z m522 -17 c-7 -8
-20 -14 -29 -14 -13 1 -13 2 2 6 9 2 14 9 11 15 -4 7 -2 8 4 4 7 -4 12 -2 12
5 0 7 3 9 6 6 4 -4 1 -13 -6 -22z m-635 5 c3 -5 1 -10 -4 -10 -6 0 -11 5 -11
10 0 6 2 10 4 10 3 0 8 -4 11 -10z m720 -2 c5 4 5 1 1 -6 -5 -9 -13 -9 -26 -2
-13 7 -21 7 -25 0 -3 -5 -11 -10 -18 -10 -6 0 -2 6 8 14 13 9 25 11 36 5 9 -4
20 -5 24 -1z m-655 -18 c0 -10 -27 -7 -37 5 -4 4 -2 5 5 1 6 -4 12 -2 12 4 0
6 5 8 10 5 6 -3 10 -10 10 -15z m433 -7 c-3 -6 -11 -9 -19 -6 -20 7 -17 19 5
19 11 0 17 -6 14 -13z m-824 -14 c-10 -6 -8 -9 8 -9 12 0 25 -4 28 -10 4 -6
-6 -8 -24 -6 -30 3 -39 -3 -24 -17 3 -4 12 -2 19 4 8 7 14 7 19 -1 3 -5 -1
-10 -9 -10 -22 0 -20 -17 2 -23 16 -4 16 -5 0 -6 -18 -1 -43 33 -43 59 0 19
17 39 29 33 4 -3 2 -9 -5 -14z m431 11 c-8 -5 -19 -10 -25 -10 -5 0 -3 5 5 10
8 5 20 10 25 10 6 0 3 -5 -5 -10z m100 -14 c7 -9 6 -13 -5 -13 -8 0 -12 4 -9
9 3 4 -2 8 -10 8 -8 0 -17 4 -20 9 -9 13 32 1 44 -13z m-180 5 c0 -6 -4 -12
-8 -15 -5 -3 -9 1 -9 9 0 8 4 15 9 15 4 0 8 -4 8 -9z m120 -1 c0 -5 -4 -10
-10 -10 -5 0 -10 5 -10 10 0 6 5 10 10 10 6 0 10 -4 10 -10z m-89 -27 c-12
-20 -14 -14 -5 12 4 9 9 14 11 11 3 -2 0 -13 -6 -23z m487 13 c-7 -8 -15 -12
-17 -11 -5 6 10 25 20 25 5 0 4 -6 -3 -14z m32 -1 c-7 -8 -17 -15 -23 -15 -6
0 -2 7 9 15 25 19 30 19 14 0z m-465 -6 c-4 -5 -1 -9 4 -9 6 0 11 -5 11 -11 0
-8 -5 -8 -15 1 -12 10 -18 10 -30 0 -10 -9 -15 -9 -15 -1 0 6 5 11 11 11 5 0
8 4 5 8 -2 4 4 9 15 9 11 1 17 -2 14 -8z m65 7 c0 -3 -4 -8 -10 -11 -5 -3 -10
-1 -10 4 0 6 5 11 10 11 6 0 10 -2 10 -4z m427 -16 c-2 -11 -10 -26 -17 -33
-11 -9 -11 -7 0 7 13 17 13 19 0 14 -8 -3 -15 -15 -14 -28 1 -22 0 -22 -13 -4
-8 10 -19 19 -26 20 -16 0 -37 -16 -37 -28 0 -6 7 -5 15 2 22 18 18 3 -4 -19
-19 -19 -20 -19 -17 7 1 15 -1 34 -5 43 -6 13 -3 16 14 14 12 -1 22 -3 22 -4
0 -2 9 -4 21 -6 12 -3 29 4 40 15 24 24 24 24 21 0z m61 8 c-2 -6 -10 -13 -16
-14 -7 -1 -8 0 -2 3 5 2 8 9 4 14 -3 5 0 9 6 9 7 0 10 -5 8 -12z m-478 -18 c0
-5 -8 -10 -17 -10 -15 0 -16 2 -3 10 19 12 20 12 20 0z m133 3 c3 -5 -5 -8
-18 -8 -13 0 -21 3 -18 8 2 4 10 7 18 7 8 0 16 -3 18 -7z m57 3 c0 -2 -7 -7
-16 -10 -8 -3 -12 -2 -9 4 6 10 25 14 25 6z m403 -11 c-3 -9 -8 -14 -10 -11
-3 3 -2 9 2 15 9 16 15 13 8 -4z m-1043 -25 c5 0 11 6 13 13 3 6 6 8 6 2 0 -5
-4 -17 -9 -25 -9 -13 -11 -13 -20 0 -5 8 -9 22 -9 30 1 11 3 10 6 -2 2 -10 8
-18 13 -18z m340 -5 c0 -2 -7 -2 -15 2 -9 3 -15 2 -14 -3 1 -5 1 -16 0 -24 -1
-12 -4 -11 -12 3 -6 9 -15 14 -21 11 -6 -4 -8 -3 -4 4 3 5 0 13 -6 16 -7 3 1
3 17 -1 29 -5 29 -5 10 11 -19 16 -18 16 13 1 17 -8 32 -18 32 -20z m180 21
c-7 -7 -13 -7 -20 0 -6 6 -3 10 10 10 13 0 16 -4 10 -10z m-145 -6 c5 -8 12
-7 23 2 10 7 14 8 10 4 -4 -5 0 -15 10 -22 9 -8 12 -14 5 -14 -6 0 -15 5 -18
10 -5 8 -11 7 -20 0 -16 -14 -35 -5 -35 16 0 16 16 19 25 4z m362 -20 l0 -29
-19 21 c-22 26 -22 29 -3 22 8 -4 15 -1 15 5 0 6 2 11 3 11 2 0 4 -13 4 -30z
m333 26 c0 -3 -4 -8 -10 -11 -5 -3 -10 -1 -10 4 0 6 5 11 10 11 6 0 10 -2 10
-4z m-409 -29 c-10 -9 -11 -8 -5 6 3 10 9 15 12 12 3 -3 0 -11 -7 -18z m225
11 c4 -7 3 -9 -1 -5 -5 4 -15 -3 -22 -15 -8 -15 -12 -18 -13 -7 0 8 5 20 12
27 15 15 15 15 24 0z m-691 -18 c10 -11 16 -20 13 -20 -3 0 -13 9 -23 20 -10
11 -16 20 -13 20 3 0 13 -9 23 -20z m357 11 c-18 -11 -18 -12 -2 -41 13 -24
12 -24 -5 -10 -23 19 -21 19 -40 -5 -9 -11 -13 -14 -9 -6 5 10 1 11 -14 7 -11
-4 -23 -2 -27 4 -3 5 0 10 7 10 8 1 6 6 -6 15 -25 19 -16 19 20 0 26 -13 29
-13 48 10 11 14 25 25 30 25 6 0 5 -4 -2 -9z m54 -3 c4 4 2 -1 -5 -10 -7 -10
-18 -15 -24 -11 -7 4 -8 0 -3 -12 6 -15 4 -16 -10 -4 -14 12 -14 14 0 24 9 7
12 16 8 21 -4 4 0 3 9 -4 9 -6 20 -8 25 -4z m94 -12 c10 -13 10 -17 3 -12 -8
4 -13 2 -13 -6 0 -10 -2 -10 -9 1 -5 8 -7 20 -4 28 3 8 6 13 7 11 1 -2 8 -12
16 -22z m387 9 c0 -8 -4 -12 -9 -9 -4 3 -8 9 -8 15 0 5 4 9 8 9 5 0 9 -7 9
-15z m-1157 -5 c0 -5 -4 -10 -10 -10 -5 0 -10 5 -10 10 0 6 5 10 10 10 6 0 10
-4 10 -10z m68 -15 c4 -5 -1 -5 -10 -2 -10 3 -22 -1 -30 -11 -11 -15 -11 -15
3 -4 13 10 19 10 29 -2 10 -13 8 -15 -10 -11 -16 3 -20 0 -16 -10 3 -8 1 -15
-4 -15 -6 0 -10 7 -10 15 0 8 -6 13 -12 11 -7 -1 -10 -1 -5 1 4 3 4 10 1 15
-5 7 -2 8 6 3 10 -6 12 -4 7 7 -4 12 0 15 19 13 14 -1 28 -6 32 -10z m42 6 c0
-5 -7 -14 -15 -21 -10 -9 -15 -9 -15 -1 0 6 5 11 11 11 5 0 7 5 4 10 -3 6 -1
10 4 10 6 0 11 -4 11 -9z m310 5 c0 -3 -4 -8 -10 -11 -5 -3 -10 -1 -10 4 0 6
5 11 10 11 6 0 10 -2 10 -4z m55 -18 c-9 -6 -19 -7 -22 -4 -4 3 -1 6 6 6 7 0
9 4 6 10 -4 6 1 7 11 3 15 -6 15 -7 -1 -15z m239 14 c2 -4 -4 -8 -14 -8 -10 0
-16 4 -14 8 3 4 9 8 14 8 5 0 11 -4 14 -8z m176 -4 c-1 -16 -30 -56 -30 -41 0
7 5 15 10 18 6 3 10 11 10 17 0 6 -9 3 -20 -7 -11 -10 -20 -15 -20 -10 0 9 31
34 43 35 4 0 7 -6 7 -12z m63 -3 c-3 -9 -8 -14 -10 -11 -3 3 -2 9 2 15 9 16
15 13 8 -4z m114 8 c-4 -3 -1 -13 6 -22 11 -14 10 -14 -5 -2 -16 12 -16 31 -1
31 4 0 3 -3 0 -7z m-924 -16 c8 5 8 2 0 -9 -7 -8 -10 -18 -6 -21 3 -4 1 -7 -5
-7 -7 0 -12 6 -12 13 0 8 -4 7 -10 -3 -5 -8 -10 -12 -10 -7 0 14 25 47 28 37
2 -6 9 -7 15 -3z m970 5 c2 7 4 1 4 -15 l1 -27 -19 21 c-22 26 -25 36 -5 20
11 -9 15 -9 19 1z m-596 -9 c-4 -3 -1 -13 6 -21 9 -13 9 -14 0 -8 -7 4 -13 3
-13 -3 0 -5 6 -12 13 -14 6 -3 -3 -6 -20 -6 -18 -1 -33 -5 -33 -11 0 -5 -5
-10 -11 -10 -6 0 -8 7 -5 16 4 10 2 13 -7 8 -6 -4 -9 -4 -5 1 4 4 3 13 -2 20
-7 8 -5 12 5 12 8 0 12 -4 9 -9 -3 -4 -1 -8 5 -8 5 0 12 6 14 13 4 9 8 8 16
-3 9 -12 11 -11 11 8 0 12 5 22 12 22 6 0 8 -3 5 -7z m411 -24 c-6 -4 -17 -5
-25 -2 -9 4 -11 0 -7 -13 6 -16 5 -17 -7 -6 -12 11 -11 15 3 26 10 7 14 16 10
21 -4 4 3 2 15 -6 14 -9 18 -16 11 -20z m63 13 c-7 -2 -18 1 -23 6 -8 8 -4 9
13 5 13 -4 18 -8 10 -11z m-1060 -15 c-10 -9 -11 -8 -5 6 3 10 9 15 12 12 3
-3 0 -11 -7 -18z m279 8 c4 3 14 -3 21 -12 8 -10 9 -14 2 -10 -6 4 -14 3 -18
-3 -3 -5 0 -10 8 -10 8 0 18 -7 21 -16 5 -13 4 -14 -7 -6 -8 7 -17 9 -20 5 -4
-3 -8 -1 -8 5 -3 26 -4 31 -11 38 -5 4 -8 12 -7 18 0 6 3 5 6 -2 2 -6 8 -10
13 -7z m607 -2 c6 -16 -36 -28 -50 -14 -9 9 -8 14 3 21 19 12 42 9 47 -7z
m699 8 c-11 -17 26 -32 49 -21 3 1 14 3 25 4 12 0 25 8 30 16 8 13 10 12 10
-2 0 -10 5 -18 10 -18 6 0 10 -4 10 -8 0 -13 -70 -10 -70 2 0 6 -6 4 -13 -4
-9 -11 -32 -15 -84 -15 -40 1 -73 -3 -73 -8 0 -5 -6 -4 -13 2 -8 6 -17 8 -21
4 -11 -12 -120 -11 -128 1 -5 7 -8 5 -8 -5 0 -12 -7 -15 -25 -11 -14 2 -25 6
-25 7 0 13 14 35 22 35 5 0 6 -5 2 -12 -5 -8 0 -9 14 -6 12 4 25 2 28 -3 3 -5
12 -5 23 0 10 6 23 6 31 1 10 -6 20 -4 31 6 12 11 19 12 24 4 5 -8 11 -8 21 1
11 9 14 9 14 -1 0 -9 4 -9 17 1 13 11 17 11 20 1 3 -6 10 -9 16 -5 7 4 21 8
32 8 11 0 21 6 21 13 2 19 4 22 10 22 3 0 3 -4 0 -9z m-1727 -31 c11 -24 11
-24 -3 -6 -9 11 -16 24 -16 30 0 12 5 7 19 -24z m18 8 c-3 -8 -6 -5 -6 6 -1
11 2 17 5 13 3 -3 4 -12 1 -19z m494 -2 c8 5 10 3 4 -6 -5 -8 -3 -11 6 -8 8 3
13 14 11 24 -2 16 -1 17 7 4 15 -22 14 -28 -10 -35 -17 -6 -19 -9 -8 -16 11
-7 11 -9 1 -9 -10 0 -10 -3 2 -15 17 -18 30 -20 20 -3 -4 6 -3 8 3 5 6 -4 16
0 22 7 8 10 9 16 1 21 -5 3 -10 11 -10 18 0 6 6 2 14 -9 10 -13 11 -23 4 -31
-13 -16 4 -17 19 -2 9 9 8 18 -3 35 -14 20 -14 22 0 20 9 -1 19 -6 23 -11 4
-4 2 -5 -4 -1 -15 8 -18 -10 -3 -19 18 -11 31 -43 20 -50 -6 -4 -10 -3 -9 2 3
20 -2 34 -11 28 -6 -4 -8 -10 -6 -14 3 -4 0 -8 -7 -9 -7 -1 -31 -4 -54 -8 -40
-5 -44 -4 -53 21 -6 15 -8 31 -4 36 3 5 1 9 -3 9 -5 0 -9 9 -9 21 0 18 1 19
12 4 8 -10 18 -14 25 -9z m439 -5 c-5 -10 -7 -21 -4 -24 3 -3 -1 -4 -10 -3 -8
1 -19 6 -23 11 -4 4 -3 5 3 2 11 -7 29 19 25 36 -1 5 3 6 9 2 7 -4 7 -12 0
-24z m263 -7 c4 -8 13 -14 19 -14 6 0 6 6 -2 15 -10 13 -11 18 -1 28 10 9 11
8 6 -4 -7 -18 8 -32 40 -36 15 -2 17 -1 6 6 -10 7 -7 9 12 8 14 -1 23 -5 20
-9 -9 -15 7 -8 27 12 11 11 26 20 33 20 6 -1 1 -8 -13 -16 -24 -14 -24 -15 -3
-11 19 4 21 2 14 -11 -10 -18 -61 -25 -61 -8 0 8 -3 8 -8 0 -4 -5 -20 -10 -37
-9 -16 1 -34 -1 -40 -4 -5 -3 -33 -6 -60 -6 -28 -1 -55 -3 -60 -6 -6 -2 -47
-4 -92 -4 -46 0 -83 -2 -83 -5 0 -3 -32 -5 -70 -5 -56 0 -70 2 -70 15 0 13 1
13 10 0 8 -12 10 -12 10 5 0 13 3 16 8 8 15 -24 64 -2 56 25 -5 14 -4 14 4 2
8 -10 8 -18 0 -27 -7 -9 -7 -13 0 -13 6 0 13 3 15 8 3 4 33 7 66 7 50 0 60 3
56 15 -4 8 -3 11 1 8 9 -10 33 15 26 27 -3 6 2 4 11 -4 9 -7 17 -21 16 -30 0
-13 -2 -13 -8 2 -6 17 -8 18 -20 3 -8 -9 -11 -19 -7 -23 3 -3 6 -1 6 6 0 7 5
9 13 4 18 -11 36 -12 43 -2 4 6 11 6 19 -1 9 -8 15 -8 20 0 3 6 11 8 16 5 5
-4 9 1 9 9 0 10 -6 13 -15 10 -8 -4 -15 -11 -15 -17 0 -6 -3 -7 -6 -4 -8 8 14
37 28 37 5 0 13 -10 18 -22 5 -14 9 -17 10 -8 0 13 1 13 10 0 5 -8 13 -11 17
-6 4 4 -5 19 -22 33 -26 22 -27 23 -5 12 14 -6 29 -18 33 -25z m67 21 c0 -2
-6 -5 -13 -8 -8 -3 -14 1 -14 8 0 7 6 11 14 8 7 -3 13 -6 13 -8z m-366 -9
c-10 -8 -21 -12 -24 -10 -5 6 21 24 34 24 6 0 1 -6 -10 -14z m-928 -43 c-3 -4
-6 -1 -6 5 0 7 -4 12 -10 12 -12 0 -9 -22 5 -33 6 -5 3 -7 -7 -3 -19 6 -34 -9
-18 -17 6 -3 5 -4 -1 -3 -7 1 -13 10 -15 19 -1 9 2 15 7 11 5 -3 9 1 9 8 0 8
5 19 12 26 9 9 14 9 21 -4 5 -8 6 -18 3 -21z m996 23 c7 4 8 2 4 -5 -9 -13
-26 -5 -25 12 0 9 2 8 6 -1 2 -6 10 -9 15 -6z m-337 -6 c3 -5 1 -10 -4 -10 -6
0 -11 5 -11 10 0 6 2 10 4 10 3 0 8 -4 11 -10z m-419 -26 c-1 -8 -9 -20 -17
-25 -8 -5 -10 -9 -6 -9 5 0 5 -5 2 -10 -4 -7 -14 -5 -27 5 -15 10 -25 11 -34
4 -8 -6 -14 -5 -18 6 -3 10 -2 13 5 10 5 -4 17 -1 26 7 12 9 15 9 9 1 -4 -7
-2 -13 3 -13 6 0 11 6 11 13 0 9 2 9 8 0 5 -8 13 -9 22 -3 8 6 11 10 7 10 -5
0 -5 5 -2 10 9 15 14 12 11 -6z m39 6 c3 -5 1 -10 -4 -10 -6 0 -11 5 -11 10 0
6 2 10 4 10 3 0 8 -4 11 -10z m398 -17 c-6 -16 -5 -16 10 -5 9 8 21 11 27 7 5
-3 10 -2 10 4 0 7 8 7 23 2 12 -4 28 -6 35 -4 6 3 12 0 12 -6 0 -7 -22 -11
-55 -11 -30 0 -58 0 -62 -1 -5 0 -9 7 -11 15 -2 9 1 16 7 16 6 0 7 -8 4 -17z
m-638 -3 c3 -5 1 -10 -4 -10 -6 0 -11 5 -11 10 0 6 2 10 4 10 3 0 8 -4 11 -10z
m310 0 c-6 -10 11 -14 58 -11 15 0 27 -3 27 -9 0 -5 -15 -10 -32 -11 -18 0
-63 -2 -100 -4 -38 -2 -68 0 -68 4 0 16 13 20 33 9 16 -8 19 -8 14 4 -3 9 1
15 9 15 8 0 14 -4 14 -9 0 -4 5 -8 11 -8 5 0 7 6 3 13 -5 7 -2 7 10 -2 9 -8
16 -10 15 -5 -2 14 0 24 7 24 3 0 2 -4 -1 -10z m132 -13 c-4 -12 -37 -19 -37
-8 0 4 5 12 12 19 13 13 31 6 25 -11z m-387 -9 c0 -6 5 -6 14 1 10 9 15 8 19
-2 5 -14 -26 -17 -39 -4 -12 11 -24 8 -20 -5 1 -7 1 -10 -1 -5 -3 4 -16 7 -29
7 -17 0 -23 -4 -18 -12 4 -7 5 -11 1 -8 -12 11 -7 23 15 34 25 13 58 10 58 -6z
m-159 -11 c-6 -8 -9 -16 -6 -19 3 -2 -2 -5 -10 -5 -20 0 -19 14 3 26 23 14 26
13 13 -2z m569 -27 c0 -5 -5 -10 -11 -10 -5 0 -7 5 -4 10 3 6 8 10 11 10 2 0
4 -4 4 -10z m40 -6 c0 -8 -5 -12 -10 -9 -6 4 -8 11 -5 16 9 14 15 11 15 -7z
m853 -9 c-3 -9 -8 -14 -10 -11 -3 3 -2 9 2 15 9 16 15 13 8 -4z m-42 -22 c-12
-20 -14 -14 -5 12 4 9 9 14 11 11 3 -2 0 -13 -6 -23z m-683 -6 c15 6 15 5 3
-10 -20 -25 -40 -22 -33 5 3 12 7 17 9 11 3 -7 12 -9 21 -6z m672 -37 c0 -5
-5 -10 -11 -10 -5 0 -7 5 -4 10 3 6 8 10 11 10 2 0 4 -4 4 -10z m25 -94 c0
-14 -3 -22 -7 -20 -4 3 -10 -7 -14 -21 -3 -14 -8 -24 -11 -22 -2 3 1 26 8 51
12 49 22 53 24 12z m-21 -84 c3 -5 -1 -9 -9 -9 -8 0 -12 4 -9 9 3 4 7 8 9 8 2
0 6 -4 9 -8z m206 -2 c8 -5 11 -10 5 -10 -5 0 -17 5 -25 10 -8 5 -10 10 -5 10
6 0 17 -5 25 -10z m101 -37 c-12 -20 -14 -14 -5 12 4 9 9 14 11 11 3 -2 0 -13
-6 -23z m-316 7 c3 -6 -1 -7 -9 -4 -18 7 -21 14 -7 14 6 0 13 -4 16 -10z m-54
-23 c-10 -9 -11 -8 -5 6 3 10 9 15 12 12 3 -3 0 -11 -7 -18z m195 8 c-1 -8 -5
-17 -8 -21 -5 -4 -4 16 1 34 3 9 9 -1 7 -13z m-207 -67 c-6 -23 -12 -46 -16
-51 -3 -5 -7 -21 -8 -36 -2 -14 -13 -64 -25 -111 -23 -89 -28 -109 -36 -150
-3 -14 -9 -29 -14 -34 -12 -12 -9 35 3 52 6 8 5 12 -4 13 -8 0 -5 4 6 9 17 7
17 9 3 9 -10 1 -18 5 -18 11 0 5 8 7 18 3 9 -3 14 -3 10 1 -4 5 -3 19 3 33 5
13 5 22 1 19 -5 -3 -9 1 -9 8 0 8 6 12 14 9 8 -3 11 0 8 9 -3 8 1 33 10 57 8
24 15 56 15 71 0 15 7 41 15 56 8 16 15 37 15 47 0 9 4 17 9 17 5 0 5 -17 0
-42z m68 27 c0 -8 -4 -12 -9 -9 -5 3 -6 10 -3 15 9 13 12 11 12 -6z m-837 -19
c0 -2 -8 -10 -17 -17 -16 -13 -17 -12 -4 4 13 16 21 21 21 13z m537 -11 c0 -8
-4 -12 -9 -9 -5 3 -6 10 -3 15 9 13 12 11 12 -6z m-617 -1 c0 -8 -19 -13 -24
-6 -3 5 1 9 9 9 8 0 15 -2 15 -3z m914 -10 c3 -8 2 -12 -4 -9 -6 3 -10 10 -10
16 0 14 7 11 14 -7z m-901 -29 c-7 -21 -12 -19 -10 4 0 11 5 18 9 15 4 -3 5
-11 1 -19z m283 -1 c1 -9 0 -13 -4 -10 -3 4 -7 14 -8 22 -1 9 0 13 4 10 3 -4
7 -14 8 -22z m37 11 c4 -8 3 -16 -1 -19 -4 -3 -9 4 -9 15 -2 23 3 25 10 4z
m64 0 c0 -8 -4 -12 -9 -9 -5 3 -6 10 -3 15 9 13 12 11 12 -6z m577 7 c3 -5 -1
-9 -9 -9 -8 0 -12 4 -9 9 3 4 7 8 9 8 2 0 6 -4 9 -8z m-551 -25 c3 -8 -1 -14
-8 -14 -7 0 -11 6 -8 14 3 7 6 13 8 13 2 0 5 -6 8 -13z m105 -12 c-3 -3 -9 2
-12 12 -6 14 -5 15 5 6 7 -7 10 -15 7 -18z m405 5 c-8 -30 -21 -34 -15 -5 2
14 8 25 12 25 5 0 6 -9 3 -20z m207 10 c0 -5 -5 -10 -11 -10 -5 0 -7 5 -4 10
3 6 8 10 11 10 2 0 4 -4 4 -10z m-1036 -18 c3 -5 -1 -9 -9 -9 -8 0 -12 4 -9 9
3 4 7 8 9 8 2 0 6 -4 9 -8z m403 -12 c1 -16 -1 -17 -12 -7 -11 10 -8 19 10 27
1 0 1 -9 2 -20z m393 10 c0 -5 -2 -10 -4 -10 -3 0 -8 5 -11 10 -3 6 -1 10 4
10 6 0 11 -4 11 -10z m-562 -25 c-3 -3 -9 2 -12 12 -6 14 -5 15 5 6 7 -7 10
-15 7 -18z m715 5 c-3 -11 -10 -23 -16 -27 -5 -3 -8 -2 -5 3 3 5 8 17 11 27 9
24 16 22 10 -3z m-977 -22 c3 -4 -1 -5 -10 -4 -8 1 -18 5 -22 8 -3 4 1 5 10 4
8 -1 18 -5 22 -8z m518 4 c3 -5 -1 -9 -9 -9 -8 0 -12 4 -9 9 3 4 7 8 9 8 2 0
6 -4 9 -8z m306 -2 c0 -5 -5 -10 -11 -10 -5 0 -7 5 -4 10 3 6 8 10 11 10 2 0
4 -4 4 -10z m-371 -17 c-8 -10 -18 -21 -24 -25 -6 -5 -5 -8 3 -8 6 0 12 -4 12
-8 0 -5 -6 -9 -14 -9 -19 0 -12 36 11 53 25 18 28 17 12 -3z m108 4 c0 -8 -6
-14 -14 -14 -9 0 -10 4 -2 14 6 7 12 13 14 13 1 0 2 -6 2 -13z m43 -11 c0 -2
-8 -10 -17 -17 -16 -13 -17 -12 -4 4 13 16 21 21 21 13z m-63 -29 c0 -7 -11
-13 -23 -13 -12 0 -20 4 -18 8 3 5 9 6 14 3 5 -3 11 -1 15 5 8 13 12 13 12 -3z
m79 -2 c-1 -8 -5 -17 -8 -21 -5 -4 -4 16 1 34 3 9 9 -1 7 -13z m60 -21 c-7
-38 -14 -40 -12 -5 0 17 4 31 9 31 4 0 5 -12 3 -26z m334 -6 c0 -4 -9 -12 -19
-18 -16 -8 -20 -7 -18 8 1 17 37 27 37 10z m-587 -19 c-8 -8 -13 -7 -18 2 -5
8 -4 10 3 5 7 -4 12 -2 12 5 0 7 3 9 7 6 4 -4 2 -12 -4 -18z m67 6 c-7 -8 -17
-15 -23 -15 -6 0 -2 7 9 15 25 19 30 19 14 0z m50 12 c0 -2 -12 -14 -27 -28
l-28 -24 24 28 c23 25 31 32 31 24z m-305 -25 c-3 -3 -11 0 -18 7 -9 10 -8 11
6 5 10 -3 15 -9 12 -12z m400 8 c3 -5 1 -10 -4 -10 -6 0 -11 5 -11 10 0 6 2
10 4 10 3 0 8 -4 11 -10z m-448 -17 c-4 -3 -2 -12 4 -19 7 -8 7 -14 -1 -19 -5
-3 -10 1 -10 9 0 9 -6 16 -12 16 -9 0 -8 4 2 10 17 11 26 13 17 3z m257 -1 c3
-5 -1 -9 -9 -9 -8 0 -12 4 -9 9 3 4 7 8 9 8 2 0 6 -4 9 -8z m-7 -47 c0 -8 -4
-12 -9 -9 -5 3 -6 10 -3 15 9 13 12 11 12 -6z m-182 -17 c5 4 5 1 1 -5 -4 -7
-1 -23 5 -35 15 -28 19 -59 7 -52 -5 4 -7 12 -4 20 3 8 2 14 -3 14 -4 0 -15
19 -24 43 -11 28 -12 36 -3 25 7 -10 17 -14 21 -10z m220 -26 c-3 -3 -11 0
-18 7 -9 10 -8 11 6 5 10 -3 15 -9 12 -12z m-253 -34 c9 -24 25 -77 37 -118
12 -41 27 -86 32 -99 5 -13 7 -26 5 -29 -7 -6 -31 50 -35 79 0 5 -7 7 -13 3
-9 -5 -9 -2 1 9 9 12 10 17 2 17 -7 0 -10 4 -6 9 3 5 1 12 -5 16 -6 4 -8 10
-5 15 3 5 0 14 -7 22 -7 7 -13 27 -13 43 -1 17 -4 40 -9 53 -4 12 -5 22 -3 22
2 0 11 -19 19 -42z m148 -3 c8 -11 10 -17 6 -13 -5 4 -16 2 -25 -5 -14 -11
-14 -10 -2 6 9 12 10 17 2 17 -7 0 -9 5 -6 11 4 6 8 9 9 7 1 -2 8 -12 16 -23z
m-433 -7 c2 -17 0 -19 -7 -8 -5 8 -6 18 -4 22 8 12 10 10 11 -14z m635 -3 c3
0 9 -3 13 -7 4 -3 0 -5 -9 -4 -9 1 -22 8 -29 16 -10 10 -9 11 3 4 8 -5 18 -9
22 -9z m-56 -21 c0 -20 -11 -25 -11 -6 0 4 -3 12 -7 18 -4 6 -1 11 5 11 7 0
13 -11 13 -23z m60 -30 c1 -9 0 -13 -4 -10 -3 4 -7 14 -8 22 -1 9 0 13 4 10 3
-4 7 -14 8 -22z m94 -1 c0 -10 -4 -14 -8 -8 -4 6 -11 13 -16 18 -5 4 -2 7 7 7
10 0 17 -8 17 -17z m35 8 c3 -5 2 -12 -3 -15 -5 -3 -9 1 -9 9 0 17 3 19 12 6z
m-45 -43 c0 -19 -16 -5 -17 14 -2 18 0 20 7 8 5 -8 10 -18 10 -22z m-106 0
c-3 -5 -10 -5 -16 -2 -7 5 -9 -2 -4 -19 3 -14 3 -28 -2 -31 -8 -5 -15 41 -7
53 2 4 11 8 19 8 8 0 13 -4 10 -9z m94 -43 c0 -24 -8 -31 -21 -19 -4 5 13 44
19 44 1 0 2 -11 2 -25z m-164 -13 c2 -4 -4 -8 -14 -8 -10 0 -16 4 -14 8 3 4 9
8 14 8 5 0 11 -4 14 -8z m68 -14 c-14 -14 -44 -20 -36 -7 3 5 9 7 14 4 5 -3
11 -1 15 5 3 5 9 10 13 10 3 0 1 -5 -6 -12z m81 -4 c3 -3 0 -26 -8 -50 -7 -24
-11 -44 -8 -44 3 0 0 -7 -7 -15 -7 -9 -10 -18 -7 -21 3 -3 -3 -34 -13 -70 -10
-35 -16 -64 -13 -64 3 0 1 -6 -5 -12 -11 -14 -12 -18 -12 -43 0 -8 -6 -15 -14
-15 -15 0 -11 35 7 57 5 7 7 20 3 28 -3 8 -1 15 4 15 6 0 10 5 10 11 0 5 -4 8
-9 5 -10 -6 -5 25 9 59 4 11 12 32 18 46 8 20 7 30 -4 41 -13 13 -13 15 0 15
8 0 13 -4 10 -9 -3 -4 0 -8 7 -8 7 0 9 10 7 25 -3 13 -1 22 3 19 5 -3 9 2 9
11 0 10 -5 13 -12 9 -7 -4 -8 -3 -4 4 8 13 19 15 29 6z m-159 -12 c2 -4 -4 -8
-14 -8 -10 0 -16 4 -14 8 3 4 9 8 14 8 5 0 11 -4 14 -8z m-138 -39 c2 -9 5
-27 9 -40 9 -35 -3 -27 -13 10 -6 17 -13 41 -17 52 -7 16 -6 18 5 8 8 -7 15
-20 16 -30z m484 34 c0 -2 -10 -12 -21 -23 -22 -19 -22 -19 -10 4 10 18 31 31
31 19z m-340 -27 c0 -5 -5 -10 -11 -10 -5 0 -7 5 -4 10 3 6 8 10 11 10 2 0 4
-4 4 -10z m45 -19 c-9 -8 -36 -10 -30 -2 2 4 11 8 20 8 8 0 13 -3 10 -6z m-45
-5 c0 -2 -8 -10 -17 -17 -16 -13 -17 -12 -4 4 13 16 21 21 21 13z m307 -2 c-3
-3 -12 -4 -19 -1 -8 3 -5 6 6 6 11 1 17 -2 13 -5z m-552 -13 c3 -5 2 -12 -3
-15 -5 -3 -9 1 -9 9 0 17 3 19 12 6z m324 6 c-2 -1 -13 -9 -24 -17 -19 -14
-19 -14 -6 3 7 9 18 17 24 17 6 0 8 -1 6 -3z m-239 -49 c0 -4 -4 -8 -9 -8 -6
0 -12 4 -15 8 -3 5 1 9 9 9 8 0 15 -4 15 -9z m244 0 c-3 -4 -9 -8 -15 -8 -5 0
-9 4 -9 8 0 5 7 9 15 9 8 0 12 -4 9 -9z m87 -7 c-6 -10 -11 -35 -13 -55 -1
-20 -6 -36 -10 -36 -4 0 -7 -3 -6 -7 0 -5 -4 -19 -11 -33 -11 -24 -11 -24 -5
5 3 17 7 37 9 46 2 9 8 33 13 52 6 20 7 38 4 41 -3 3 2 6 12 6 13 0 15 -4 7
-19z m-161 -6 c0 -2 -6 -8 -13 -14 -10 -8 -14 -7 -14 2 0 8 6 14 14 14 7 0 13
-1 13 -2z m243 -23 c-3 -12 -9 -19 -14 -16 -5 3 -3 14 3 24 15 24 19 21 11 -8z
m-406 -4 c-3 -8 -6 -5 -6 6 -1 11 2 17 5 13 3 -3 4 -12 1 -19z m214 5 c13 -16
12 -17 -3 -4 -17 13 -22 21 -14 21 2 0 10 -8 17 -17z m-31 3 c0 -2 -8 -10 -17
-17 -16 -13 -17 -12 -4 4 13 16 21 21 21 13z m11 -109 c-6 -8 -7 -18 -3 -22 4
-5 1 -5 -6 -1 -10 6 -10 11 -1 22 6 8 14 14 16 14 3 0 0 -6 -6 -13z m-97 -15
c3 -5 -1 -9 -9 -9 -8 0 -12 4 -9 9 3 4 7 8 9 8 2 0 6 -4 9 -8z m196 -16 c0 -3
-4 -8 -10 -11 -5 -3 -10 -1 -10 4 0 6 5 11 10 11 6 0 10 -2 10 -4z m-175 -77
c11 -17 -1 -21 -15 -4 -8 9 -8 15 -2 15 6 0 14 -5 17 -11z m52 -24 c0 -8 -3
-13 -5 -10 -3 3 -12 -1 -21 -7 -10 -8 -9 -4 3 10 23 26 23 26 23 7z m-1 -45
c0 -12 -4 -16 -9 -11 -5 5 -6 14 -3 20 10 15 12 14 12 -9z m4 -116 c0 -8 -5
-12 -10 -9 -6 4 -8 11 -5 16 9 14 15 11 15 -7z"/>
<path d="M825 1940 c3 -5 8 -10 11 -10 2 0 4 5 4 10 0 6 -5 10 -11 10 -5 0 -7
-4 -4 -10z"/>
<path d="M1480 1929 c0 -5 5 -7 10 -4 6 3 10 8 10 11 0 2 -4 4 -10 4 -5 0 -10
-5 -10 -11z"/>
<path d="M1080 1910 c0 -5 5 -10 11 -10 5 0 7 5 4 10 -3 6 -8 10 -11 10 -2 0
-4 -4 -4 -10z"/>
<path d="M1425 1840 c-3 -5 1 -10 9 -10 8 0 18 5 21 10 3 6 -1 10 -9 10 -8 0
-18 -4 -21 -10z"/>
<path d="M2156 1822 c-3 -5 1 -9 9 -9 8 0 12 4 9 9 -3 4 -7 8 -9 8 -2 0 -6 -4
-9 -8z"/>
<path d="M1996 1812 c-3 -5 1 -9 9 -9 8 0 12 4 9 9 -3 4 -7 8 -9 8 -2 0 -6 -4
-9 -8z"/>
</g>
</svg>
